<?xml version="1.0" standalone="no"?>
<!DOCTYPE svg PUBLIC "-//W3C//DTD SVG 20010904//EN"
 "http://www.w3.org/TR/2001/REC-SVG-20010904/DTD/svg10.dtd">
<svg version="1.0" xmlns="http://www.w3.org/2000/svg"
 width="180.000000pt" height="180.000000pt" viewBox="0 0 180.000000 180.000000"
 preserveAspectRatio="xMidYMid meet">
<metadata>
Created by potrace 1.14, written by Peter Selinger 2001-2017
</metadata>
<g transform="translate(0.000000,180.000000) scale(0.100000,-0.100000)"
fill="#000000" stroke="none">
<path d="M0 900 l0 -900 900 0 900 0 0 900 0 900 -900 0 -900 0 0 -900z m868
255 c62 -121 114 -231 117 -245 4 -18 -27 -88 -113 -255 l-117 -230 -159 0
c-140 0 -160 2 -170 17 -9 15 10 59 99 238 l110 220 -108 215 c-59 118 -107
221 -107 228 0 33 23 38 180 35 l155 -3 113 -220z m480 0 c82 -157 114 -230
114 -255 0 -25 -32 -98 -114 -255 l-113 -220 -159 0 c-140 0 -160 2 -170 17
-9 15 10 59 99 238 l110 220 -108 215 c-59 118 -107 221 -107 228 0 33 23 38
180 35 l155 -3 113 -220z"/>
</g>
</svg>
