<svg width="139" height="40" viewBox="0 0 139 40" fill="none" xmlns="http://www.w3.org/2000/svg">
<path d="M6.20849 19.9537L0 8H8.15444L14.5483 19.9537L8.15444 32H0L6.20849 19.9537Z" fill="white"/>
<path d="M18.0695 19.9537L11.861 8H20.0154L26.4092 19.9537L20.0154 32H11.861L18.0695 19.9537Z" fill="white"/>
<path d="M53.2893 8.908C53.8866 8.908 54.3986 9.12133 54.8253 9.548C55.252 9.97467 55.4653 10.4973 55.4653 11.116C55.4653 11.7347 55.252 12.2573 54.8253 12.684C54.3986 13.1107 53.876 13.324 53.2573 13.324C52.6386 13.324 52.116 13.1107 51.6893 12.684C51.2626 12.2573 51.0493 11.7347 51.0493 11.116C51.0493 10.4973 51.2626 9.97467 51.6893 9.548C52.1373 9.12133 52.6706 8.908 53.2893 8.908ZM47.6253 8.908C48.2226 8.908 48.7346 9.12133 49.1613 9.548C49.588 9.97467 49.8013 10.4973 49.8013 11.116C49.8013 11.7347 49.588 12.2573 49.1613 12.684C48.7346 13.1107 48.212 13.324 47.5933 13.324C46.9746 13.324 46.452 13.1107 46.0253 12.684C45.5986 12.2573 45.3853 11.7347 45.3853 11.116C45.3853 10.4973 45.5986 9.97467 46.0253 9.548C46.4733 9.12133 47.0066 8.908 47.6253 8.908ZM50.3773 18.38C49.46 18.38 48.7986 18.7853 48.3933 19.596C47.988 20.4067 47.7853 21.74 47.7853 23.596C47.7853 25.452 47.988 26.7853 48.3933 27.596C48.7986 28.4067 49.4706 28.812 50.4093 28.812C51.3693 28.812 52.052 28.4067 52.4573 27.596C52.8626 26.7853 53.0653 25.4627 53.0653 23.628C53.0653 21.7293 52.852 20.3853 52.4253 19.596C52.02 18.7853 51.3373 18.38 50.3773 18.38ZM50.5693 15.148C51.6146 15.148 52.5533 15.3507 53.3853 15.756C54.2386 16.14 54.9533 16.6947 55.5293 17.42C56.1266 18.1453 56.5853 19.0307 56.9053 20.076C57.2253 21.1 57.3853 22.2627 57.3853 23.564C57.3853 24.8653 57.2253 26.0387 56.9053 27.084C56.5853 28.1293 56.1266 29.0253 55.5293 29.772C54.932 30.4973 54.196 31.0627 53.3213 31.468C52.468 31.852 51.508 32.044 50.4413 32.044C48.244 32.044 46.5266 31.308 45.2893 29.836C44.0733 28.3427 43.4653 26.2627 43.4653 23.596C43.4653 21.0147 44.084 18.9773 45.3213 17.484C46.004 16.6733 46.7613 16.0867 47.5933 15.724C48.4253 15.34 49.4173 15.148 50.5693 15.148ZM65.8013 22.796C65.844 23.0307 65.908 23.3613 65.9933 23.788C66.0786 24.2147 66.1426 24.556 66.1853 24.812C66.2706 25.2813 66.3453 25.74 66.4093 26.188C66.4733 26.636 66.548 27.084 66.6333 27.532C66.74 26.9773 66.8253 26.508 66.8893 26.124C66.9746 25.74 67.0493 25.388 67.1133 25.068C67.1773 24.7267 67.252 24.3853 67.3373 24.044C67.4226 23.7027 67.5186 23.2867 67.6253 22.796L70.6333 9.9C70.6973 9.68667 70.7506 9.548 70.7933 9.484C70.8573 9.39867 70.9533 9.356 71.0813 9.356L71.4013 9.388L74.5053 9.74C74.9106 9.804 75.1133 9.94267 75.1133 10.156C75.1133 10.1987 75.1133 10.2413 75.1133 10.284C75.1133 10.3053 75.092 10.3907 75.0493 10.54L69.1933 31.404C69.108 31.6387 69.0226 31.788 68.9373 31.852C68.8733 31.916 68.724 31.948 68.4893 31.948H64.7453C64.468 31.948 64.2973 31.916 64.2333 31.852C64.1693 31.8093 64.1053 31.66 64.0413 31.404L58.3773 10.604C58.3346 10.3907 58.3133 10.2627 58.3133 10.22C58.3133 10.1133 58.3453 10.0387 58.4093 9.996C58.4946 9.932 58.6546 9.87867 58.8893 9.836L62.2493 9.228C62.3986 9.20667 62.484 9.196 62.5053 9.196C62.5266 9.196 62.5586 9.196 62.6013 9.196C62.7293 9.196 62.8146 9.23867 62.8573 9.324C62.9213 9.388 62.9746 9.53733 63.0173 9.772L65.8013 22.796ZM89.5656 19.116C90.9736 19.116 91.9549 18.8707 92.5096 18.38C93.0856 17.8893 93.3736 17.036 93.3736 15.82C93.3736 14.6893 93.1176 13.9107 92.6056 13.484C92.1149 13.036 91.2189 12.812 89.9176 12.812H88.6696V19.116H89.5656ZM88.6696 30.828C88.6696 31.1267 88.6269 31.3187 88.5416 31.404C88.4776 31.468 88.2962 31.5 87.9976 31.5H84.9576C84.6589 31.5 84.4669 31.468 84.3816 31.404C84.3176 31.3187 84.2856 31.1267 84.2856 30.828V10.22C84.2856 9.92133 84.3176 9.74 84.3816 9.676C84.4669 9.59067 84.6589 9.548 84.9576 9.548H90.1416C91.4216 9.548 92.4456 9.62267 93.2136 9.772C93.9816 9.9 94.6322 10.124 95.1656 10.444C95.9122 10.9133 96.4989 11.596 96.9256 12.492C97.3736 13.388 97.5976 14.412 97.5976 15.564C97.5976 16.652 97.4269 17.6333 97.0856 18.508C96.7442 19.3827 96.2536 20.14 95.6136 20.78C94.9736 21.3987 94.2056 21.8787 93.3096 22.22C92.4136 22.5613 91.4109 22.732 90.3016 22.732H88.6696V30.828ZM103.599 8.396C103.77 8.35333 103.866 8.332 103.887 8.332C103.909 8.332 103.941 8.332 103.983 8.332C104.197 8.332 104.303 8.51333 104.303 8.876V25.548C104.303 25.996 104.303 26.348 104.303 26.604C104.303 26.86 104.303 27.052 104.303 27.18C104.303 27.308 104.303 27.404 104.303 27.468C104.325 27.532 104.346 27.596 104.367 27.66C104.495 28.0867 104.762 28.3 105.167 28.3C105.338 28.3 105.498 28.2893 105.647 28.268C105.818 28.2253 106.01 28.172 106.223 28.108C106.287 28.0867 106.362 28.076 106.447 28.076C106.575 28.076 106.661 28.14 106.703 28.268L107.343 30.892L107.375 31.02C107.397 31.0627 107.407 31.1053 107.407 31.148C107.407 31.2547 107.311 31.3613 107.119 31.468C106.927 31.5747 106.671 31.6707 106.351 31.756C106.053 31.8413 105.711 31.9053 105.327 31.948C104.943 32.012 104.559 32.044 104.175 32.044C102.277 32.044 101.061 31.276 100.527 29.74C100.463 29.548 100.41 29.3773 100.367 29.228C100.325 29.0573 100.293 28.8333 100.271 28.556C100.271 28.2787 100.261 27.9373 100.239 27.532C100.239 27.1053 100.239 26.54 100.239 25.836V9.58C100.239 9.23867 100.399 9.036 100.719 8.972L103.599 8.396ZM117.818 16.428C117.818 16.1933 117.839 16.0547 117.882 16.012C117.924 15.948 118.063 15.8947 118.298 15.852L121.274 15.212L121.594 15.18C121.786 15.18 121.882 15.3507 121.882 15.692V27.468C121.882 28.2573 121.924 28.876 122.01 29.324C122.095 29.772 122.255 30.2413 122.49 30.732C122.554 30.8387 122.586 30.9347 122.586 31.02C122.586 31.1693 122.479 31.2547 122.266 31.276L119.578 31.884C119.45 31.9267 119.364 31.948 119.322 31.948C119.3 31.948 119.268 31.948 119.226 31.948C118.863 31.948 118.543 31.3613 118.266 30.188C117.54 30.8707 116.847 31.3507 116.186 31.628C115.546 31.9053 114.767 32.044 113.85 32.044C112.228 32.044 111.023 31.5853 110.234 30.668C109.999 30.412 109.807 30.156 109.658 29.9C109.53 29.644 109.423 29.3347 109.338 28.972C109.274 28.6093 109.22 28.1827 109.178 27.692C109.156 27.18 109.146 26.5507 109.146 25.804V16.428C109.146 16.1933 109.167 16.0547 109.21 16.012C109.252 15.948 109.391 15.8947 109.626 15.852L112.602 15.212C112.644 15.1907 112.687 15.18 112.73 15.18C112.772 15.18 112.815 15.18 112.858 15.18C113.092 15.18 113.21 15.3507 113.21 15.692V25.612C113.21 26.3373 113.231 26.86 113.274 27.18C113.316 27.4787 113.391 27.7347 113.498 27.948C113.647 28.2253 113.871 28.4387 114.17 28.588C114.468 28.7373 114.799 28.812 115.162 28.812C116.015 28.812 116.9 28.428 117.818 27.66V16.428ZM126.109 27.756C126.173 27.5427 126.28 27.436 126.429 27.436C126.493 27.436 126.589 27.468 126.717 27.532C128.402 28.4493 129.853 28.908 131.069 28.908C131.624 28.908 132.072 28.7587 132.413 28.46C132.754 28.14 132.925 27.7347 132.925 27.244C132.925 27.0307 132.893 26.8387 132.829 26.668C132.765 26.4973 132.648 26.3373 132.477 26.188C132.306 26.0387 132.05 25.8893 131.709 25.74C131.389 25.5907 130.973 25.42 130.461 25.228C129.949 25.036 129.512 24.8653 129.149 24.716C128.808 24.5453 128.509 24.396 128.253 24.268C127.997 24.14 127.784 24.012 127.613 23.884C127.442 23.756 127.282 23.628 127.133 23.5C126.28 22.6893 125.853 21.644 125.853 20.364C125.853 19.596 125.992 18.892 126.269 18.252C126.546 17.612 126.941 17.068 127.453 16.62C127.965 16.1507 128.562 15.788 129.245 15.532C129.949 15.276 130.717 15.148 131.549 15.148C132.061 15.148 132.594 15.2013 133.149 15.308C133.725 15.3933 134.258 15.5107 134.749 15.66C135.24 15.8093 135.645 15.9693 135.965 16.14C136.285 16.3107 136.445 16.4707 136.445 16.62C136.445 16.7267 136.413 16.844 136.349 16.972L135.549 18.796C135.442 18.988 135.336 19.084 135.229 19.084C135.186 19.084 135.101 19.0627 134.973 19.02C133.736 18.4653 132.658 18.188 131.741 18.188C130.376 18.188 129.693 18.732 129.693 19.82C129.693 20.2467 129.821 20.5773 130.077 20.812C130.354 21.0467 130.93 21.3347 131.805 21.676C132.402 21.9107 132.893 22.1133 133.277 22.284C133.682 22.4547 134.024 22.6147 134.301 22.764C134.578 22.892 134.802 23.0307 134.973 23.18C135.165 23.308 135.346 23.4467 135.517 23.596C136.392 24.4707 136.829 25.5587 136.829 26.86C136.829 27.5427 136.701 28.2147 136.445 28.876C136.189 29.516 135.826 30.0813 135.357 30.572C134.397 31.5533 133.085 32.044 131.421 32.044C130.525 32.044 129.597 31.9267 128.637 31.692C127.698 31.4573 126.813 31.1267 125.981 30.7C125.682 30.5507 125.49 30.444 125.405 30.38C125.32 30.2947 125.277 30.1987 125.277 30.092C125.277 30.028 125.277 29.9747 125.277 29.932C125.298 29.8893 125.33 29.8147 125.373 29.708L126.109 27.756Z" fill="white"/>
</svg>
